<svg xmlns="http://www.w3.org/2000/svg" width="475.06" height="468.395" viewBox="0 0 475.06 468.395">
  <g id="Icons" transform="translate(-18.465 -30.19)">
    <g id="Group_19391" data-name="Group 19391" transform="translate(18.465 30.19)">
      <path id="Floor_9_" d="M88.037,453.513c-92.763-53.553-92.763-140.386,0-193.939s243.152-53.553,335.915,0,92.763,140.386,0,193.939S180.8,507.076,88.037,453.513Z" transform="translate(-18.465 -25.286)" fill="#004493"/>
      <ellipse id="Shadow_10_" cx="72.881" cy="42.073" rx="72.881" ry="42.073" transform="translate(70.927 346.667)" fill="#003d83"/>
      <ellipse id="Shadow_1_" cx="103.966" cy="51.737" rx="103.966" ry="51.737" transform="translate(171.647 327.374) rotate(-28.338)" fill="#003d83"/>
      <g id="Plants_1_" transform="translate(354.212 264.803)">
        <g id="Group_19376" data-name="Group 19376" transform="translate(0)">
          <path id="Path_9401" data-name="Path 9401" d="M372.06,332.835c10.105-12.044,25.935-19.9,43.735-24.53,17.574-4.576,20.723-15.389,9.079-18.9-13.2-3.981-29.68,3.334-40.308,13.5-18.518,17.718-20.836,31.28-20.836,31.28Z" transform="translate(-363.73 -288.304)" fill="#09f"/>
          <path id="Path_9402" data-name="Path 9402" d="M372.06,332.835c10.105-12.044,25.935-19.9,43.735-24.53,17.574-4.576,20.723-15.389,9.079-18.9-13.2-3.981-29.68,3.334-40.308,13.5-18.518,17.718-20.836,31.28-20.836,31.28Z" transform="translate(-363.73 -288.304)" opacity="0.15"/>
          <g id="Group_19375" data-name="Group 19375" transform="translate(2.615 5.29)">
            <path id="Path_9403" data-name="Path 9403" d="M366.793,332a.6.6,0,0,1-.226-.051.513.513,0,0,1-.236-.687c15-30.777,48.187-38.349,56.261-37.774a.51.51,0,0,1,.472.554.522.522,0,0,1-.554.472c-7.879-.605-40.493,6.9-55.266,37.2A.51.51,0,0,1,366.793,332Z" transform="translate(-366.279 -293.461)" fill="#fff"/>
          </g>
        </g>
        <g id="Group_19378" data-name="Group 19378" transform="translate(0 27.542)">
          <path id="Path_9404" data-name="Path 9404" d="M363.73,335.34a2.8,2.8,0,0,0,4.237,2.4c9.4-5.468,23.1-8.495,45.294-2.185,11.8,3.355,17.6,1.108,20.087-3.693,2.76-5.335-3.088-10.5-9.756-12.927-22.7-8.3-43.191-2.637-59.862,13.922Z" transform="translate(-363.73 -315.151)" fill="#09f"/>
          <g id="Group_19377" data-name="Group 19377" transform="translate(0.783 6.899)">
            <path id="Path_9405" data-name="Path 9405" d="M365,335.607a.508.508,0,0,1-.38-.174.518.518,0,0,1,.041-.728c19.605-17.523,49.972-14.106,61.463-7.274a.506.506,0,0,1,.174.708.515.515,0,0,1-.708.174c-11.265-6.7-41.026-10.023-60.252,7.161A.508.508,0,0,1,365,335.607Z" transform="translate(-364.493 -321.876)" fill="#fff"/>
          </g>
        </g>
      </g>
      <g id="Plants_2_" transform="translate(73.626 303.659)">
        <g id="Group_19380" data-name="Group 19380" transform="translate(6.232)">
          <path id="Path_9406" data-name="Path 9406" d="M151.309,375.906c-8.618-13.152-23.411-22.816-40.534-29.516-16.917-6.617-18.764-17.728-6.781-19.831,13.583-2.39,29.085,6.812,38.431,18.159,16.3,19.78,17,33.517,17,33.517Z" transform="translate(-96.305 -326.179)" fill="#09f"/>
          <path id="Path_9407" data-name="Path 9407" d="M151.309,375.906c-8.618-13.152-23.411-22.816-40.534-29.516-16.917-6.617-18.764-17.728-6.781-19.831,13.583-2.39,29.085,6.812,38.431,18.159,16.3,19.78,17,33.517,17,33.517Z" transform="translate(-96.305 -326.179)" opacity="0.15"/>
          <g id="Group_19379" data-name="Group 19379" transform="translate(8.858 4.823)">
            <path id="Path_9408" data-name="Path 9408" d="M156.338,375.7a.564.564,0,0,0,.226-.021.519.519,0,0,0,.318-.657c-11.265-32.327-43.335-43.766-51.409-44.145a.508.508,0,0,0-.533.492.522.522,0,0,0,.492.533c7.9.328,39.4,11.634,50.485,43.458A.484.484,0,0,0,156.338,375.7Z" transform="translate(-104.94 -330.88)" fill="#fff"/>
          </g>
        </g>
        <g id="Group_19382" data-name="Group 19382" transform="translate(0 28.814)">
          <path id="Path_9409" data-name="Path 9409" d="M159.654,376.881a4.264,4.264,0,0,1-6.617,3.037c-8.7-5.827-21.657-9.6-42.883-6.207-12.106,1.939-17.6-.975-19.513-6.032-2.113-5.622,4.309-10.054,11.213-11.685,23.524-5.55,43.2,2.493,57.8,20.888Z" transform="translate(-90.231 -354.265)" fill="#09f"/>
          <g id="Group_19381" data-name="Group 19381" transform="translate(7.758 6.998)">
            <path id="Path_9410" data-name="Path 9410" d="M157.837,379.454a.485.485,0,0,0,.4-.123.508.508,0,0,0,.041-.728c-17.4-19.708-47.962-19.9-60.18-14.476a.512.512,0,0,0,.421.934c11.972-5.314,41.929-5.119,58.99,14.219A.476.476,0,0,0,157.837,379.454Z" transform="translate(-97.793 -361.087)" fill="#fff"/>
          </g>
        </g>
      </g>
      <g id="Check_Mark_1_" transform="translate(173.508 66.635)">
        <g id="Circle" transform="translate(0 24.42)">
          <path id="XMLID_392_" d="M385.828,146.876h0l-.154-.092c-.01,0-.01-.01-.021-.01l-39.108-22.509c-.01-.01-.021-.01-.041-.021l-.226-.113v.01c-18.272-9.213-42.647-6.453-68.859,10.505-52.67,34.06-92.815,112.461-89.655,175.1,1.58,31.229,13.614,52.64,31.814,62.047v.01l.164.082c.01,0,.01.01.021.01l39.118,22.519c.01,0,.01.01.021.01l.195.1v-.01c18.272,9.243,42.668,6.484,68.911-10.475,52.67-34.06,92.815-112.461,89.655-175.1C416.071,177.7,404.027,156.293,385.828,146.876Z" transform="translate(-187.59 -118.945)" fill="#3984db"/>
          <path id="XMLID_384_" d="M257.537,391.116,219.763,369.3h-.031l-.174-.1c-18.189-9.438-30.223-30.849-31.793-62.037-1.406-27.936,5.807-58.99,18.867-87.839l.267-.636,38.862,23.145c-13.091,28.838-20.282,59.893-18.877,87.839C228.432,360.235,239.994,381.39,257.537,391.116Z" transform="translate(-187.59 -116.36)" fill="#012f63"/>
          <path id="XMLID_359_" d="M327.008,383.467c52.67-34.06,92.814-112.461,89.644-175.1s-48.423-85.818-101.094-51.757S222.745,269.068,225.9,331.71,274.338,417.528,327.008,383.467Z" transform="translate(-186.602 -118.376)" fill="#0055b6"/>
        </g>
        <path id="Shadow_7_" d="M370.979,141.43,304.962,277.4l-14.209-15.4a23.356,23.356,0,0,0-34.317,31.69l37.436,40.544a23.19,23.19,0,0,0,15.891,7.469q.646.031,1.293.031a23.7,23.7,0,0,0,3.385-.246,23.323,23.323,0,0,0,17.594-12.906l75.712-155.949C400.013,155.372,387.086,144.621,370.979,141.43Z" transform="translate(-185.966 -93.942)" fill="#012f63"/>
        <g id="Group_19383" data-name="Group 19383" transform="translate(71.416)">
          <path id="Path_9411" data-name="Path 9411" d="M424.414,97.838c-.41-.236-.831-.462-1.272-.667a20.316,20.316,0,0,0-27.1,9.377L312.025,279.579l-4.771-5.171a20.186,20.186,0,0,0-4.76-3.806c-2.5-1.436-13.152-7.6-14.876-8.6a20.28,20.28,0,0,0-25.053,31.311L300,333.87a20.413,20.413,0,0,0,4.832,3.847c2.442,1.4,13.05,7.54,14.794,8.546a20.175,20.175,0,0,0,9.079,2.7,20.9,20.9,0,0,0,4.063-.174,20.252,20.252,0,0,0,15.276-11.2l99.38-204.7a20.314,20.314,0,0,0-8.094-26.428C438.91,106.21,427.061,99.367,424.414,97.838Z" transform="translate(-257.202 -95.142)" fill="#09f"/>
          <path id="Path_9412" data-name="Path 9412" d="M424.414,97.838c-.41-.236-.831-.462-1.272-.667a20.316,20.316,0,0,0-27.1,9.377L312.025,279.579l-4.771-5.171a20.186,20.186,0,0,0-4.76-3.806c-2.5-1.436-13.152-7.6-14.876-8.6a20.28,20.28,0,0,0-25.053,31.311L300,333.87a20.413,20.413,0,0,0,4.832,3.847c2.442,1.4,13.05,7.54,14.794,8.546a20.175,20.175,0,0,0,9.079,2.7,20.9,20.9,0,0,0,4.063-.174,20.252,20.252,0,0,0,15.276-11.2l99.38-204.7a20.314,20.314,0,0,0-8.094-26.428C438.91,106.21,427.061,99.367,424.414,97.838Z" transform="translate(-257.202 -95.131)" opacity="0.15"/>
          <path id="Path_9413" data-name="Path 9413" d="M319.579,341.413c-1.734-1.005-12.342-7.161-14.794-8.546a20.366,20.366,0,0,1-4.832-3.837l-37.436-40.544a20.213,20.213,0,0,1-3.868-6.166l14.886,8.587a20.01,20.01,0,0,0,3.888,6.176l37.436,40.544A20.861,20.861,0,0,0,319.579,341.413Z" transform="translate(-257.164 -90.291)" opacity="0.15"/>
          <path id="Path_9414" data-name="Path 9414" d="M414.247,108.777a20.116,20.116,0,0,0-4.7,6.238l-86.4,177.976-12.5-13.542,84-173.031a20.026,20.026,0,0,1,4.709-6.238Z" transform="translate(-254.772 -95.011)" opacity="0.15"/>
          <path id="Check_4_" d="M437.662,105.551a20.316,20.316,0,0,0-27.1,9.377L324.154,292.9l-17.276-18.713a20.281,20.281,0,0,0-29.793,27.525l37.436,40.554a20.134,20.134,0,0,0,13.8,6.484,20.9,20.9,0,0,0,4.063-.174,20.253,20.253,0,0,0,15.276-11.2l99.38-204.7A20.319,20.319,0,0,0,437.662,105.551Z" transform="translate(-256.826 -94.925)" fill="#09f"/>
        </g>
      </g>
      <g id="Character_15_" transform="translate(63.12 32.151)">
        <g id="Group_19384" data-name="Group 19384" transform="translate(0 37.781)">
          <path id="Path_9415" data-name="Path 9415" d="M159.232,125.68c-7.828,0-13.183,2.042-18.743,9.951-5.1,7.263-19.123,31.475-19.123,31.475s-10.228-21.042-11.285-25.248-.964-6.063.041-7.889a16.656,16.656,0,0,0,2.6-7.222c.4-5.037,1.631-9.356.5-9.5-3.129-.174-3.252,3.837-4.894,6.217a1.953,1.953,0,0,1-3.15-.349c-.687-1.406-.318-3.714-.657-5.376a24.566,24.566,0,0,1,.441-2.749,12.425,12.425,0,0,0,3.591.1c1.354,2.124,2.278,3.016,4.165,2.154.246-.4-.81-3.119-2.042-5.089a1.511,1.511,0,0,0-.841-.646,16.106,16.106,0,0,0-6.956-.195,1.285,1.285,0,0,0-.893.492,17.009,17.009,0,0,0-2,4.073c-.144.441-.544.431-.646.051-1.005-4.955-1.016-11.993-1.016-15.286,0-2.6-3.8-3-3.929.718a120.127,120.127,0,0,0,.256,14.948c.062.451-.451.667-.626.174-.657-1.765-2.267-7.058-2.944-16.209-.185-2.462-4.165-2.862-4.134.6a87.783,87.783,0,0,0,2.278,18.22c.113.431-.277.81-.575.318a59.556,59.556,0,0,1-4.463-11.244c-.841-2.965-4.812-2.216-4.114,1.488,1.241,6.638,3.211,15.04,6.145,21.031,3.139,6.412,5.858,9.623,7.407,14.66s8.012,33.568,14.917,44.689c5.407,8.71,11.593,7.91,18.251,3.314s30.449-37.743,30.449-37.743Z" transform="translate(-79.99 -98.356)" fill="#f0b8b8"/>
          <path id="Path_9416" data-name="Path 9416" d="M120.32,165.435s3.334,5.663,3.847,10.177a17.776,17.776,0,0,0-2.349-12.742Z" transform="translate(-78.945 -96.684)" fill="#da9898"/>
          <path id="Path_9417" data-name="Path 9417" d="M159.772,125.015c-3.981-.41-8.925-.544-14.455,2.924s-7.448,8.33-10.126,12.557-11.931,19.246-11.931,19.246,3.4,14.25,16.907,17.184l20.221-27.433Z" transform="translate(-78.869 -97.67)" fill="#001727"/>
        </g>
        <g id="Group_19386" data-name="Group 19386" transform="translate(49.705 158.074)">
          <g id="XMLID_471_" transform="translate(6.806 147.042)">
            <path id="XMLID_1137_" d="M177.592,369.23c.985-.123,2.38,3.365,2.4,4.514s-1.118,3.591-2.637,5.889a41.388,41.388,0,0,0-4.976,8.854c-1.159,3.16-2.226,5.232-5.458,9.367-3.591,4.606-12.024,12.321-24.827,8.966-3.129-.821-4.688-1.806-5.817-2.944a3.8,3.8,0,0,1-.893-3.919Z" transform="translate(-135.071 -358.671)" fill="#263238"/>
            <path id="XMLID_1136_" d="M152.449,365.5c-.01.041-.021.072-.031.113a8.263,8.263,0,0,0,.082,2.883,20.268,20.268,0,0,1-1.293,9.992,20.628,20.628,0,0,1-3.56,5.807,30.613,30.613,0,0,1-5.981,4.842c-6.484,4.145-7.181,6.9-6.268,11.09,2.165,4.873,16.876,7.838,25.33.585a24.767,24.767,0,0,0,8.043-10.947,77.43,77.43,0,0,1,4.268-9.028c1.641-3.078,4.74-6.545,4.832-9.715.051-1.744-1.672-4.986-3.355-7.653-1.539-2.452-3.119-4.781-4.5-4.5l.38,1.385c-1.149,1.2-2.821,1.641-3.837,3.047-1.252,1.734-1.2,4.063-1.98,6.053a.669.669,0,0,1-.38.462.5.5,0,0,1-.544-.277,1.5,1.5,0,0,1-.123-.636l-.092-2.985a2.513,2.513,0,0,0-.431-1.621c-.8-.9-2.77-.8-3.868-.841a42.444,42.444,0,0,0-4.422.267,2.121,2.121,0,0,0-1.436.38A2.516,2.516,0,0,0,152.449,365.5Z" transform="translate(-135.074 -358.938)" fill="#37474f"/>
          </g>
          <g id="Group_19385" data-name="Group 19385">
            <path id="Path_9418" data-name="Path 9418" d="M130.851,309.563c3.416,11.234,19.39,50.116,20.344,52.455l3.18,7.715a11.9,11.9,0,0,0,6.484.267c.339,3.724.893,9.562,1.118,12.516.072,3.416.369,7.633-.359,11.008-.626,2.873-1.354,5.889-1.9,8.772-.236,1.272-.482,2.555-.667,3.837a6.426,6.426,0,0,0,.318,4.032,5.116,5.116,0,0,0,1.262,1.436,11.27,11.27,0,0,0,8.053,2.36,8.494,8.494,0,0,0,4.268-1.416c2.483-1.775,3.355-4.863,4.617-7.489,1.375-2.852.923-3.16,1.046-6.207.082-2.134.677-7.551,1.529-13.214s4.524-25.566,6.289-45.4a162.657,162.657,0,0,0,0-26.469c14.014-38.072,20.252-60.714,22.088-73.353,1.857-12.844.964-17.42.728-24.807L141.1,217.251C135.621,252.492,126.265,294.5,130.851,309.563Zm33.291-60.406Z" transform="translate(-128.409 -215.61)" fill="#f0b8b8"/>
            <path id="Path_9419" data-name="Path 9419" d="M129.81,281.374c1.406-12.947,11.09-62.714,11.09-62.714h68.654s.431,9.551.308,13.942-1.529,12.414-3.991,22.55-11.542,38.872-13.3,43.109-5.15,16.486-5.15,16.486c1.682,23.022-2.7,43.683-5.981,71.147,0,0-.954,3.714-10.68,2.975-9.459-.718-11.367-4.2-11.367-4.2l-.636-23.7s-5.171,1.59-8.207.862c0,0-20.323-50.167-21.308-53.194C128.281,305.617,128.4,294.321,129.81,281.374Z" transform="translate(-128.436 -215.531)" fill="#002a47"/>
            <path id="Path_9420" data-name="Path 9420" d="M129.81,281.374c1.406-12.947,11.09-62.714,11.09-62.714h68.654s.431,9.551.308,13.942-1.529,12.414-3.991,22.55-11.542,38.872-13.3,43.109-5.15,16.486-5.15,16.486c1.682,23.022-2.7,43.683-5.981,71.147,0,0-.954,3.714-10.68,2.975-9.459-.718-11.367-4.2-11.367-4.2l-.636-23.7s-5.171,1.59-8.207.862c0,0-20.323-50.167-21.308-53.194C128.281,305.617,128.4,294.321,129.81,281.374Z" transform="translate(-128.62 -215.531)" opacity="0.45"/>
            <path id="Path_9421" data-name="Path 9421" d="M158.47,250.678c-9.726-8.772-11.88-15.738-11.88-15.738a64.622,64.622,0,0,0,17.123,13.716s-9.233,48.751-8.556,58.775,3.17,53.122,3.17,53.122c.021.41-6.545-45.571-6.73-49.254C151.094,301.614,158.47,250.678,158.47,250.678Z" transform="translate(-127.97 -215.109)" opacity="0.2"/>
          </g>
          <g id="XMLID_419_" transform="translate(5.27 179.658)">
            <path id="XMLID_470_" d="M180.184,405.46c.954.277.841,3.129.41,4.186a13,13,0,0,1-4.432,4.6,21.471,21.471,0,0,0-6.515,7.017,32.857,32.857,0,0,1-10.208,9.962,24.67,24.67,0,0,1-17.954,2.493c-6.443-1.826-7.038-3.406-6.976-5.837Z" transform="translate(-133.553 -390.348)" fill="#263238"/>
            <path id="XMLID_434_" d="M160.274,390.925c-1.693,8.248-4.637,14.229-11.459,19.308-5.427,4.032-9.377,6.084-13.706,9.695-1.847,1.539-2,4.812-.585,8.341,2.924,2.349,7.089,3.693,12.691,3.693,6.248-.01,8.659-1.108,12.249-3.57a32.941,32.941,0,0,0,4.9-4.114c3.006-3.016,5.1-6.73,7.263-9.12s6.863-4.832,8.187-7.715c.728-1.58.421-5.253-.072-8.371-.451-2.862.431-7.889-.954-8.177.031.01-.185,2.052-.185,2.052-.113.462-.4.7-1.375,1.036a6.9,6.9,0,0,1-2.637.082,1.547,1.547,0,0,0-1.765.5c-.923,1.087-1.17,2.626-2.36,3.529a.716.716,0,0,1-.277.144.3.3,0,0,1-.287-.082.471.471,0,0,1-.051-.339c.113-1.026.226-2.042.339-3.067a3.558,3.558,0,0,0,.021-.934,1.985,1.985,0,0,0-1-1.344,11.218,11.218,0,0,0-2.76-1.149,17.168,17.168,0,0,0-3.057-.523A9.442,9.442,0,0,0,160.274,390.925Z" transform="translate(-133.577 -390.73)" fill="#455a64"/>
          </g>
        </g>
        <path id="XMLID_418_" d="M203.06,127.944s2.832,3.888,5.089,11.88a194.565,194.565,0,0,1,4.309,39.929c0,18.118-2.442,47.5-2.442,47.5-21.042,10.546-54.979,4.309-69.906-5.971.605-3.262,1.118-20.416,2.288-31.732.8-19.41,1.447-29.587,1.59-38.215.277-17.256,8.864-26.171,15.348-26.3l16.476.256Z" transform="translate(-78.432 -59.884)" fill="#09f"/>
        <g id="Group_19387" data-name="Group 19387" transform="translate(116.24 67.978)">
          <path id="Path_9422" data-name="Path 9422" d="M206.873,219.47c-3.129,2.575-9.274,7.52-10.393,10.013-1.282,2.852-2.083,7.151-2.924,8.813s.451,2.431,2.247,1.857,2.883-2.124,4.278-5.848,5.273-6.658,5.273-6.658Z" transform="translate(-193.294 -125.414)" fill="#f0b8b8"/>
          <path id="Path_9423" data-name="Path 9423" d="M195.392,255.422c.749,1.447,2.493,1.447,4.114,1.58a13.325,13.325,0,0,0,5.817-.657,10.6,10.6,0,0,0,5.591-3.888c1.58-2.267,1.98-5.119,2.883-7.735,1.9-5.489,7.52-9.449,8.433-15.266.38-2.411.38-5.232,1.067-6.73.4-.882,9.644-16.794,12.937-23.688,3.17-6.627,5.54-9.746,2.667-17.707s-12.66-35.979-19.574-45.715c-3.929-5.519-10.157-7.1-17.707-7.746-5.745,14.968.944,30.418.944,30.418l15.194,29.321s-5.909,20.19-9.6,31.413c-1.026,3.119-3.1,5.048-5.427,8.5-1.016,1.5-3.334,4.134-4.165,5.745-1.067,2.072-1.036,3.406-1.539,6.309C196.233,244.2,195.033,254.735,195.392,255.422Z" transform="translate(-193.241 -127.788)" fill="#f0b8b8"/>
          <path id="Path_9424" data-name="Path 9424" d="M200.742,127.79c3.97.154,9.674.831,13.08,2.555s5.776,3.847,9.695,11.706,9.644,23.124,9.644,23.124-1.9,11.521-20.118,14.506l-12.311-22.7C200.742,156.977,195.253,142.83,200.742,127.79Z" transform="translate(-193.164 -127.79)" fill="#001727"/>
        </g>
        <g id="XMLID_1138_" transform="translate(66.264)">
          <g id="XMLID_1146_">
            <g id="Group_19388" data-name="Group 19388">
              <path id="Path_9425" data-name="Path 9425" d="M154.8,92.841a24.916,24.916,0,0,1,1.4,3,17.8,17.8,0,0,0,2.3,3.816c2.36,2.719,5.684,4.709,8.7,6.638,1.836,1.17,3.929,2.267,6.166,1.949,2.278-.328,4.729.164,7.048.38,2.688.246,5.386.482,8.074.728l-.451,8.484s1-2.247,2.37-4.935c1.18-2.308,6.073-14.024,6.094-14.065,2.431-5.807,5.314-13.532,2.411-19.636a8.111,8.111,0,0,0-3.16-3.621,6.969,6.969,0,0,0,.267-2.893,9.277,9.277,0,0,0-4.288-6.792,20.651,20.651,0,0,0-7.612-3.139A47.989,47.989,0,0,0,173.09,61.53a66.127,66.127,0,0,0-10.813,1.241,38.3,38.3,0,0,1-6.022.626,11.572,11.572,0,0,1-2.606-.123,29.64,29.64,0,0,1-3.15-1.139.727.727,0,0,0-.564-.041.716.716,0,0,0-.308.482,9.139,9.139,0,0,0,1.672,7.4,4.934,4.934,0,0,1-1.334-.39,8.728,8.728,0,0,1-1.385-.78,7.971,7.971,0,0,1-1.949-1.857.6.6,0,0,0-.318-.236c-.205-.041-.38.144-.5.308a7.263,7.263,0,0,0-1.067,5.673,12.324,12.324,0,0,0,2.667,5.242,7.163,7.163,0,0,0-.359,6.884,9.161,9.161,0,0,0,1.816,2.606c.923.944,2.011,1.713,2.985,2.6A16.676,16.676,0,0,1,154.8,92.841Z" transform="translate(-144.58 -61.529)" fill="#37474f"/>
              <path id="Path_9426" data-name="Path 9426" d="M179.266,78.275a15.47,15.47,0,0,0,.585,4.535,8.973,8.973,0,0,0,2.288,3.375,26.107,26.107,0,0,1,3.18,3.211,13.41,13.41,0,0,1,1.785,5.909,4.162,4.162,0,0,0,1.559,3.18c2.2,1.354,3.509-1.272,4.678-2.565,1.508-1.4,5.981-3.1,8.053,1.662,2.144,4.924-1.806,11.449-5.417,12.455-6.207,1.734-7.561-2.493-7.561-2.493l-1.19,22.16c-3.509,6.638-11.736,8.751-17.143,7.694-4.668-.913-7.233-4.186-2.842-8.925l.236-6.751s-5.6.667-8.3.154c-4.494-.841-6.73-4.668-7.941-9.6-1.949-7.93-2.842-16.271-.431-34.122,1.108-.605,5.54,2.852,12.26,3.314A31.363,31.363,0,0,0,179.266,78.275Z" transform="translate(-144.457 -61.1)" fill="#f0b8b8"/>
            </g>
            <path id="XMLID_1147_" d="M167.042,120.826s10.157-1.7,13.747-3.468a11.662,11.662,0,0,0,5.037-4.668,15.909,15.909,0,0,1-2.955,5.6c-2.688,3.211-15.912,5.212-15.912,5.212Z" transform="translate(-144 -60.203)" fill="#da9898"/>
          </g>
          <g id="XMLID_1139_" transform="translate(0.17 23.145)">
            <path id="XMLID_1144_" d="M172.15,86.006l4.729,1.447a2.586,2.586,0,0,0-1.693-3.16A2.415,2.415,0,0,0,172.15,86.006Z" transform="translate(-144.036 -84.087)" fill="#263238"/>
            <path id="XMLID_1143_" d="M170.726,107.84l-6.956,2.36a3.616,3.616,0,0,0,4.6,2.431A3.858,3.858,0,0,0,170.726,107.84Z" transform="translate(-144.253 -83.474)" fill="#874c4c"/>
            <path id="Path_9427" data-name="Path 9427" d="M170.1,109.5a4.093,4.093,0,0,0-3.97,3.109,3.474,3.474,0,0,0,2.165-.031,3.762,3.762,0,0,0,2.472-3.016A4.738,4.738,0,0,0,170.1,109.5Z" transform="translate(-144.192 -83.431)" fill="#f28f8f"/>
            <path id="XMLID_1142_" d="M151.57,86.8l4.8-.636a2.342,2.342,0,0,0-2.657-2.052A2.49,2.49,0,0,0,151.57,86.8Z" transform="translate(-144.569 -84.089)" fill="#263238"/>
            <path id="Path_9428" data-name="Path 9428" d="M180.4,88.73l15.871,5.437a5.776,5.776,0,0,0-4.576,2.319l-11.234-4.268Z" transform="translate(-143.822 -83.969)" fill="#263238"/>
            <path id="XMLID_1141_" d="M153.88,94.818a1.9,1.9,0,1,0,1.96-1.918A1.931,1.931,0,0,0,153.88,94.818Z" transform="translate(-144.509 -83.861)" fill="#263238"/>
            <path id="XMLID_394_" d="M171.55,94.818a1.9,1.9,0,1,0,1.96-1.918A1.931,1.931,0,0,0,171.55,94.818Z" transform="translate(-144.051 -83.861)" fill="#263238"/>
            <g id="Group_19389" data-name="Group 19389" transform="translate(0 3.726)">
              <path id="Path_9429" data-name="Path 9429" d="M144.75,89.905a4.331,4.331,0,0,0,1.005,2.236,1.953,1.953,0,0,1,.4.8c.369,1.529.687,4.422,1.406,6.043a6.678,6.678,0,0,0,6.5,4.288,9.824,9.824,0,0,0,2.216-.185.768.768,0,0,0,.164-.041,6.309,6.309,0,0,0,1.8-.708.369.369,0,0,0,.1-.072l.154-.092c.041-.031.092-.062.195-.133.062-.041.123-.092.174-.133a1.5,1.5,0,0,0,.195-.164c.062-.051.123-.1.185-.164.123-.113.236-.226.349-.349a8.49,8.49,0,0,0,1.447-2.3c.934-2.113.7-5.068,2.236-5.407l.185-.031a1.308,1.308,0,0,1,.205-.01c2.093.031,1.867,3.252,3.037,5.55s3.109,4.545,7.664,4.606h.585l.472-.031a8.577,8.577,0,0,0,1.1-.154c.113-.031.236-.051.349-.082s.226-.062.328-.092c.072-.021.144-.041.205-.062a6.852,6.852,0,0,0,1.231-.575c.144-.092.277-.185.41-.277a5.934,5.934,0,0,0,.708-.626,7.026,7.026,0,0,0,1.375-2.134c.708-1.59.893-4.483,1.241-5.991a2.544,2.544,0,0,1,.349-.872,4.074,4.074,0,0,0,1.026-2.154,1.874,1.874,0,0,0-1.272-1.9c-.359-.051-.728-.1-1.118-.144-3.591-.431-8.269-.626-11.07.133-3.509.964-4.729,2.083-6.689,2.062-1.836-.041-3.016-1.211-6.35-2.3-2.657-.862-7.028-.841-10.372-.533-.359.031-.708.072-1.036.113C145.294,88.079,144.689,88.941,144.75,89.905Zm23.1,2.206a3,3,0,0,1,1-.821,1.069,1.069,0,0,1,.185-.1.954.954,0,0,1,.1-.051c.154-.082.318-.164.492-.236q.215-.092.462-.185a14.267,14.267,0,0,1,1.5-.472c.195-.051.4-.092.6-.144a13.327,13.327,0,0,1,1.539-.246l.359-.031c3.386-.277,5.489.523,6.258,1.211.79.718.431,3.847.113,5.427a.53.53,0,0,0-.021.113.515.515,0,0,0-.021.123c-.041.195-.082.41-.144.636-.031.123-.072.256-.113.4,0,.01,0,.01-.01.021-.062.215-.133.431-.226.667h0c-.031.072-.062.154-.092.226-.021.041-.041.092-.062.133a1.034,1.034,0,0,1-.072.154l-.092.185a2.173,2.173,0,0,1-.113.215c-.041.072-.082.144-.133.226s-.092.154-.144.226a5.316,5.316,0,0,1-4.729,2.226,6.479,6.479,0,0,1-5-1.908h0a7.216,7.216,0,0,1-1.641-3.2C167.433,95.137,167.2,93.075,167.854,92.111Zm-19.882-1.662a2.983,2.983,0,0,1,.831-.523l.062-.031a3.079,3.079,0,0,1,.369-.144c.072-.021.144-.051.226-.072a1.241,1.241,0,0,1,.185-.051l.123-.031a.092.092,0,0,1,.051-.01c.062-.01.123-.031.185-.041.236-.051.5-.092.78-.133.133-.021.277-.031.421-.041.082-.01.164-.01.256-.021.062,0,.133-.01.195-.01.174,0,.359-.01.544-.01h.195a1.115,1.115,0,0,1,.185.01,14.93,14.93,0,0,1,1.559.144c2.411.349,4.935,1.467,5.581,2.452s.513,3.047.195,4.812a6.948,6.948,0,0,1-.308,1.18l-.031.092c-.01.041-.031.082-.041.123s-.021.051-.031.082c-.021.051-.041.092-.062.144a2.454,2.454,0,0,1-.133.287l-.123.246c-.021.031-.031.062-.051.092a1.435,1.435,0,0,1-.1.164c-.031.051-.062.092-.092.144a.036.036,0,0,1-.01.021,5.32,5.32,0,0,1-5.017,2.3,5.911,5.911,0,0,1-2.534-.605c-2.4-1.221-3.006-3.909-3.293-5.16C147.725,94.286,147.253,91.136,147.971,90.449Z" transform="translate(-144.746 -87.721)" fill="#263238"/>
            </g>
            <path id="XMLID_1140_" d="M163.955,93.463l-.359,13.183-7.356-2.124L163.1,93.35A1.912,1.912,0,0,1,163.955,93.463Z" transform="translate(-144.448 -83.85)" fill="#da9898"/>
          </g>
        </g>
      </g>
      <g id="Speech_Bubble_6_" transform="translate(210.474)">
        <g id="Speech_Bubble_7_">
          <ellipse id="XMLID_398_" cx="38.01" cy="33.291" rx="38.01" ry="33.291" transform="translate(3.435)" fill="#09f"/>
          <path id="XMLID_395_" d="M234.731,81.41c-.205,4.463-3.981,12.444-10.813,15.348a.467.467,0,0,0,.082.893,20.5,20.5,0,0,0,21.031-7.961Z" transform="translate(-223.622 -28.863)" fill="#09f"/>
        </g>
        <g id="Group_19390" data-name="Group 19390" transform="translate(15.592 19.8)">
          <path id="Path_9430" data-name="Path 9430" d="M238.9,60.344a12.189,12.189,0,0,1,.985-4.227,10.107,10.107,0,0,1,2.442-3.447,11.78,11.78,0,0,1,3.847-2.319,16.19,16.19,0,0,1,10.423,0,11.619,11.619,0,0,1,3.857,2.319,10.106,10.106,0,0,1,2.442,3.447,12.188,12.188,0,0,1,.985,4.227c.051,1.149.082,2.349.082,3.6s-.031,2.431-.082,3.519a12.188,12.188,0,0,1-.985,4.227,10.388,10.388,0,0,1-2.442,3.468,11.225,11.225,0,0,1-3.857,2.319,16.564,16.564,0,0,1-10.423,0,11.439,11.439,0,0,1-3.847-2.319,10.286,10.286,0,0,1-2.442-3.468,12.19,12.19,0,0,1-.985-4.227c-.051-1.1-.082-2.267-.082-3.519S238.851,61.493,238.9,60.344Zm17.574,6.925c.031-.482.051-1.016.082-1.6s.041-1.19.041-1.8-.01-1.211-.041-1.785-.051-1.087-.082-1.539a6.092,6.092,0,0,0-.421-1.836,4.157,4.157,0,0,0-.964-1.457,4.512,4.512,0,0,0-1.539-.985,6.7,6.7,0,0,0-4.329,0,4.227,4.227,0,0,0-1.539.985,4.569,4.569,0,0,0-.964,1.457,6.165,6.165,0,0,0-.421,1.836c-.051.451-.092.964-.1,1.539s-.021,1.17-.021,1.785.01,1.211.021,1.8a14.814,14.814,0,0,0,.1,1.6,5.32,5.32,0,0,0,1.385,3.324,4.8,4.8,0,0,0,3.7,1.323,4.737,4.737,0,0,0,3.683-1.323A5.638,5.638,0,0,0,256.476,67.269Z" transform="translate(-238.82 -49.49)" fill="#fafafa"/>
          <path id="Path_9431" data-name="Path 9431" d="M291.549,76.585a.705.705,0,0,1,.123.441.861.861,0,0,1-.256.616.837.837,0,0,1-.616.256h-6.381a1.713,1.713,0,0,1-.923-.236,3.626,3.626,0,0,1-.718-.677l-7.561-9.531v9.367A1.086,1.086,0,0,1,274.14,77.9H268.9a1.086,1.086,0,0,1-1.077-1.077V50.967a1.023,1.023,0,0,1,.318-.759,1.04,1.04,0,0,1,.759-.318h5.242a1.023,1.023,0,0,1,.759.318,1.039,1.039,0,0,1,.318.759v8.443l7.048-8.648c.133-.164.308-.349.523-.564a1.486,1.486,0,0,1,1.077-.318h6.248a.9.9,0,0,1,.626.256.837.837,0,0,1,.256.616.7.7,0,0,1-.123.441l-9.89,12.085Z" transform="translate(-238.068 -49.48)" fill="#fafafa"/>
        </g>
      </g>
      <g id="Like_icon_2_" transform="translate(340.086 38.601)">
        <path id="Path_9432" data-name="Path 9432" d="M359.87,93.67,354.115,95.4,349.96,81.524l5.735-1.724Z" transform="translate(-349.96 -67.505)" fill="#dde6ec"/>
        <path id="Path_9433" data-name="Path 9433" d="M377.639,81.66a2.662,2.662,0,0,1-1.631,2.688,4.05,4.05,0,0,1,.81,1.467c.328,1.077-.544,2.524-2.278,3.037s-13.162,3.96-13.162,3.96L357.5,79.926h-.01s2.237-5.7,2.339-6.556c.133-.841-1.211-4.022-1.385-4.617-.144-.482,1.949-1.375,3.632-.687a2.859,2.859,0,0,1,1.077.739,9.1,9.1,0,0,1,1.508,2.165,7.9,7.9,0,0,1,.8,3.642l7.951-2.39a2.5,2.5,0,0,1,1.7.051,2.245,2.245,0,0,1,.636,3.8,2.113,2.113,0,0,1,2.175,1.457,2.359,2.359,0,0,1-1.313,2.667A2.243,2.243,0,0,1,377.639,81.66Z" transform="translate(-349.765 -67.816)" fill="#dde6ec"/>
      </g>
      <g id="Like_icon_1_" transform="translate(425.093 180.084)">
        <path id="Path_9434" data-name="Path 9434" d="M440.186,234.1l-7.366-1.775,4.3-17.789,7.366,1.775Z" transform="translate(-432.82 -205.496)" fill="#dde6ec"/>
        <path id="Path_9435" data-name="Path 9435" d="M467.4,232.332a3.35,3.35,0,0,1-3.488,1.888,5.042,5.042,0,0,1-.051,2.113c-.328,1.385-2.206,2.4-4.411,1.857s-16.887-4.063-16.887-4.063l3.981-16.527-.01-.01s6.073-4.8,6.73-5.663c.677-.841,1.241-5.15,1.426-5.92.154-.626,3-.256,4.4,1.559a3.742,3.742,0,0,1,.7,1.5,11.522,11.522,0,0,1,.267,3.324,9.914,9.914,0,0,1-1.447,4.483l10.2,2.452a3.148,3.148,0,0,1,1.826,1.139,2.941,2.941,0,0,1,.544,2.36,3.009,3.009,0,0,1-2.267,2.2,2.673,2.673,0,0,1,1.447,2.975,2.968,2.968,0,0,1-3.129,2.072A3.057,3.057,0,0,1,467.4,232.332Z" transform="translate(-432.568 -205.725)" fill="#dde6ec"/>
      </g>
      <g id="Like_icon_4_" transform="translate(34.194 161.398)">
        <path id="Path_9436" data-name="Path 9436" d="M76.82,223.731l8.053,2.421L90.7,206.721,82.657,204.3Z" transform="translate(-51.146 -187.076)" fill="#dde6ec"/>
        <path id="Path_9437" data-name="Path 9437" d="M52.3,206.9a3.738,3.738,0,0,0,2.288,3.765,5.577,5.577,0,0,0-1.129,2.052c-.462,1.508.769,3.529,3.191,4.247s18.436,5.55,18.436,5.55l5.427-18.046h.01s-3.129-7.982-3.283-9.182c-.185-1.18,1.693-5.632,1.939-6.463.205-.677-2.729-1.918-5.089-.964a4.279,4.279,0,0,0-1.508,1.036,12.987,12.987,0,0,0-2.113,3.026,10.928,10.928,0,0,0-1.118,5.1l-11.131-3.355a3.5,3.5,0,0,0-2.38.072,3.243,3.243,0,0,0-1.836,1.949,3.316,3.316,0,0,0,.944,3.365,2.97,2.97,0,0,0-3.047,2.042,3.3,3.3,0,0,0,1.836,3.734A3.43,3.43,0,0,0,52.3,206.9Z" transform="translate(-51.795 -187.511)" fill="#dde6ec"/>
      </g>
    </g>
  </g>
</svg>
