<svg xmlns="http://www.w3.org/2000/svg" xmlns:xlink="http://www.w3.org/1999/xlink" width="1920" height="223" viewBox="0 0 1920 223">
  <defs>
    <clipPath id="clip-path">
      <rect id="Rectangle_111" data-name="Rectangle 111" width="345" height="219" transform="translate(857 591)" fill="#fff" stroke="#707070" stroke-width="1"/>
    </clipPath>
    <linearGradient id="linear-gradient" x1="0.5" y1="1" x2="0.5" gradientUnits="objectBoundingBox">
      <stop offset="0" stop-color="#09f" stop-opacity="0.6"/>
      <stop offset="1" stop-color="#09f" stop-opacity="0"/>
    </linearGradient>
    <clipPath id="clip-path-2">
      <rect id="Rectangle_112" data-name="Rectangle 112" width="383" height="223" transform="translate(513 861)" fill="#fff" stroke="#707070" stroke-width="1"/>
    </clipPath>
  </defs>
  <g id="Group_56950" data-name="Group 56950" transform="translate(0 -10534)">
    <rect id="Rectangle_96" data-name="Rectangle 96" width="1920" height="221" transform="translate(0 10536)" fill="#002944"/>
    <g id="Mask_Group_47" data-name="Mask Group 47" transform="translate(-857 9945)" clip-path="url(#clip-path)">
      <path id="Path_9438" data-name="Path 9438" d="M1763.575,285.92v51c-8.32.048-206.064,3.737-258.056,225.387-60.241,256.815-257.714,314.429-266.09,316.756l-13.65-49.139,6.825,24.57-6.909-24.546c7.206-2.055,177.078-52.939,230.172-279.286C1517.257,288.947,1761.119,285.92,1763.575,285.92Z" transform="translate(-563.636 261.509)" opacity="0.53" fill="url(#linear-gradient)"/>
    </g>
    <g id="Mask_Group_48" data-name="Mask Group 48" transform="translate(1024 9673)" clip-path="url(#clip-path-2)">
      <path id="Path_9438-2" data-name="Path 9438" d="M1763.575,285.92v51c-8.32.048-206.064,3.737-258.056,225.387-60.241,256.815-257.714,314.429-266.09,316.756l-13.65-49.139,6.825,24.57-6.909-24.546c7.206-2.055,177.078-52.939,230.172-279.286C1517.257,288.947,1761.119,285.92,1763.575,285.92Z" transform="translate(-563.636 261.509)" opacity="0.53" fill="url(#linear-gradient)"/>
    </g>
  </g>
</svg>
