<svg xmlns="http://www.w3.org/2000/svg" width="42" height="42" viewBox="0 0 42 42">
  <g id="Group_56937" data-name="Group 56937" transform="translate(-454 -2542)">
    <circle id="Ellipse_54" data-name="Ellipse 54" cx="21" cy="21" r="21" transform="translate(454 2542)" fill="#09f"/>
    <g id="telephone-icon" transform="translate(465.807 2555.603)">
      <path id="Path_5" data-name="Path 5" d="M16.307,14.808H2.05V12.713c.075-2.439,2.229-4.294,3.531-6.4V4.455H7.75V5.786h2.917V4.455h2.169V6.31c1.406,2.259,3.471,3.725,3.471,6.373v2.124Zm2.02-8.5a7.619,7.619,0,0,0,.015-1.017,5.674,5.674,0,0,1-4.683-.464A3,3,0,0,0,13.9,6.385c.539,1.2,4.384,1.6,4.428-.075ZM.045,6.31A7.619,7.619,0,0,1,.03,5.292a5.674,5.674,0,0,0,4.683-.464,3,3,0,0,1-.239,1.556c-.539,1.2-4.4,1.6-4.428-.075ZM0,4.784c1.287-6,17.265-6.717,18.387.015a6.823,6.823,0,0,1-4.728-.539.979.979,0,0,0-.194-.778c-.943-1.182-7.69-1.227-8.558.045a1.1,1.1,0,0,0-.18.7A5.087,5.087,0,0,1,0,4.784ZM7.062,7.148a.643.643,0,1,1-.643.643.669.669,0,0,1,.643-.643Zm4.129,3.591a.643.643,0,1,1-.643.643.648.648,0,0,1,.643-.643Zm-2.065,0a.643.643,0,1,1-.643.643.648.648,0,0,1,.643-.643Zm-2.065,0a.643.643,0,1,1-.643.643.669.669,0,0,1,.643-.643Zm4.129-1.8a.643.643,0,1,1-.643.643.648.648,0,0,1,.643-.643Zm-2.065,0a.643.643,0,1,1-.643.643.648.648,0,0,1,.643-.643Zm-2.065,0a.643.643,0,1,1-.643.643.669.669,0,0,1,.643-.643Zm4.129-1.8a.643.643,0,1,1-.643.643.648.648,0,0,1,.643-.643Zm-2.065,0a.643.643,0,1,1-.643.643.648.648,0,0,1,.643-.643Z" transform="translate(0 -0.013)" fill="#fff" fill-rule="evenodd"/>
    </g>
  </g>
</svg>
