<svg xmlns="http://www.w3.org/2000/svg" width="26" height="26" viewBox="0 0 26 26">
  <g id="Group_56952" data-name="Group 56952" transform="translate(-1533 -10718)">
    <circle id="Ellipse_37" data-name="Ellipse 37" cx="13" cy="13" r="13" transform="translate(1533 10718)" fill="#225c82"/>
    <path id="instagram-logo-fill-svgrepo-com" d="M35.442,33.638a1.8,1.8,0,1,1-1.8-1.8A1.8,1.8,0,0,1,35.442,33.638Zm3.834-2.481v4.961a3.161,3.161,0,0,1-3.157,3.157H31.157A3.161,3.161,0,0,1,28,36.119V31.157A3.161,3.161,0,0,1,31.157,28h4.961A3.161,3.161,0,0,1,39.276,31.157Zm-2.932,2.481a2.706,2.706,0,1,0-2.706,2.706A2.706,2.706,0,0,0,36.344,33.638Zm.9-2.932a.677.677,0,1,0-.677.677A.677.677,0,0,0,37.246,30.706Z" transform="translate(1512.362 10697.361)" fill="#fff"/>
  </g>
</svg>
