<svg xmlns="http://www.w3.org/2000/svg" width="26" height="26" viewBox="0 0 26 26">
  <g id="Group_56951" data-name="Group 56951" transform="translate(-1568 -10718)">
    <circle id="Ellipse_38" data-name="Ellipse 38" cx="13" cy="13" r="13" transform="translate(1568 10718)" fill="#225c82"/>
    <g id="XMLID_801_" transform="translate(1575 10724.659)">
      <path id="XMLID_802_" d="M7.467,99.73H5.116a.189.189,0,0,0-.189.189v7.553a.189.189,0,0,0,.189.189H7.467a.189.189,0,0,0,.189-.189V99.919A.189.189,0,0,0,7.467,99.73Z" transform="translate(-4.741 -95.634)" fill="#fff"/>
      <path id="XMLID_803_" d="M1.551.341A1.55,1.55,0,1,0,3.1,1.891,1.552,1.552,0,0,0,1.551.341Z" fill="#fff"/>
      <path id="XMLID_804_" d="M110.871,94.761a2.761,2.761,0,0,0-2.066.867v-.491a.189.189,0,0,0-.189-.189h-2.252a.189.189,0,0,0-.189.189v7.553a.189.189,0,0,0,.189.189h2.346a.189.189,0,0,0,.189-.189V98.954c0-1.259.342-1.75,1.22-1.75.956,0,1.032.787,1.032,1.815v3.672a.189.189,0,0,0,.189.189h2.347a.189.189,0,0,0,.189-.189V98.548C113.877,96.675,113.519,94.761,110.871,94.761Z" transform="translate(-102.165 -90.853)" fill="#fff"/>
    </g>
  </g>
</svg>
