<svg xmlns="http://www.w3.org/2000/svg" xmlns:xlink="http://www.w3.org/1999/xlink" width="298.356" height="54.634" viewBox="0 0 298.356 54.634">
  <defs>
    <clipPath id="clip-path">
      <rect id="Rectangle_11" data-name="Rectangle 11" width="50.212" height="54.634" fill="none"/>
    </clipPath>
  </defs>
  <g id="Group_91" data-name="Group 91" transform="translate(-261.735 -30)">
    <path id="Choose_Your_Caregiver_" data-name="Choose Your Caregiver " d="M7.392.21a7.682,7.682,0,0,1-3.35-.662A4.879,4.879,0,0,1,1.911-2.384a6.564,6.564,0,0,1-.84-3.1Q1.05-6.342,1.05-7.329t.021-1.89a6.447,6.447,0,0,1,.85-3.076,5,5,0,0,1,2.153-1.942,7.541,7.541,0,0,1,3.318-.672,8.651,8.651,0,0,1,2.562.357,5.985,5.985,0,0,1,1.995,1.029,4.815,4.815,0,0,1,1.3,1.575,4.765,4.765,0,0,1,.5,2.016.411.411,0,0,1-.136.315.463.463,0,0,1-.326.126H10.9a.593.593,0,0,1-.4-.126.849.849,0,0,1-.231-.42,2.676,2.676,0,0,0-1.05-1.7A3.371,3.371,0,0,0,7.392-12.2a2.876,2.876,0,0,0-2.058.714,3.338,3.338,0,0,0-.819,2.373q-.063,1.722,0,3.528a3.338,3.338,0,0,0,.819,2.373A2.876,2.876,0,0,0,7.392-2.5a3.367,3.367,0,0,0,1.837-.472,2.614,2.614,0,0,0,1.04-1.691.8.8,0,0,1,.231-.431.629.629,0,0,1,.4-.115h2.394a.463.463,0,0,1,.326.126.411.411,0,0,1,.136.315,4.765,4.765,0,0,1-.5,2.016,4.815,4.815,0,0,1-1.3,1.575A5.985,5.985,0,0,1,9.954-.147,8.651,8.651,0,0,1,7.392.21ZM16.4,0a.512.512,0,0,1-.378-.147.512.512,0,0,1-.147-.378v-13.86a.512.512,0,0,1,.147-.378.512.512,0,0,1,.378-.147h2.268a.486.486,0,0,1,.357.147.512.512,0,0,1,.147.378V-9.66a4.191,4.191,0,0,1,1.386-1.071,4.472,4.472,0,0,1,1.974-.4,4.28,4.28,0,0,1,2.194.556,3.865,3.865,0,0,1,1.5,1.617,5.565,5.565,0,0,1,.546,2.573V-.525a.512.512,0,0,1-.147.378A.512.512,0,0,1,26.25,0H23.961A.486.486,0,0,1,23.6-.147a.512.512,0,0,1-.147-.378V-6.258a2.533,2.533,0,0,0-.546-1.732,1.962,1.962,0,0,0-1.554-.619,2.1,2.1,0,0,0-1.586.619,2.39,2.39,0,0,0-.6,1.732V-.525a.512.512,0,0,1-.147.378A.486.486,0,0,1,18.669,0ZM34.293.21a6.592,6.592,0,0,1-2.919-.578,4.107,4.107,0,0,1-1.8-1.649,5.39,5.39,0,0,1-.683-2.5q-.021-.42-.021-.956t.021-.934a5.142,5.142,0,0,1,.714-2.509,4.328,4.328,0,0,1,1.827-1.638,6.432,6.432,0,0,1,2.856-.577,6.379,6.379,0,0,1,2.835.577,4.328,4.328,0,0,1,1.827,1.638,5.142,5.142,0,0,1,.714,2.509,9.058,9.058,0,0,1,.042.934q0,.536-.042.956a5.39,5.39,0,0,1-.682,2.5,4.107,4.107,0,0,1-1.8,1.649A6.538,6.538,0,0,1,34.293.21Zm0-2.31a1.892,1.892,0,0,0,1.554-.64,3.078,3.078,0,0,0,.567-1.879q.021-.315.021-.84t-.021-.84a3.091,3.091,0,0,0-.567-1.869,1.878,1.878,0,0,0-1.554-.651,1.909,1.909,0,0,0-1.564.651A3.046,3.046,0,0,0,32.151-6.3q-.021.315-.021.84t.021.84a3.033,3.033,0,0,0,.577,1.879A1.923,1.923,0,0,0,34.293-2.1ZM46.914.21a6.592,6.592,0,0,1-2.919-.578,4.107,4.107,0,0,1-1.8-1.649,5.39,5.39,0,0,1-.682-2.5q-.021-.42-.021-.956t.021-.934a5.142,5.142,0,0,1,.714-2.509,4.328,4.328,0,0,1,1.827-1.638,6.432,6.432,0,0,1,2.856-.577,6.379,6.379,0,0,1,2.835.577,4.328,4.328,0,0,1,1.827,1.638,5.142,5.142,0,0,1,.714,2.509,9.057,9.057,0,0,1,.042.934q0,.536-.042.956a5.39,5.39,0,0,1-.682,2.5,4.107,4.107,0,0,1-1.8,1.649A6.538,6.538,0,0,1,46.914.21Zm0-2.31a1.892,1.892,0,0,0,1.554-.64,3.078,3.078,0,0,0,.567-1.879q.021-.315.021-.84t-.021-.84a3.091,3.091,0,0,0-.567-1.869,1.878,1.878,0,0,0-1.554-.651,1.909,1.909,0,0,0-1.564.651A3.046,3.046,0,0,0,44.772-6.3q-.021.315-.021.84t.021.84a3.033,3.033,0,0,0,.577,1.879A1.923,1.923,0,0,0,46.914-2.1ZM58.842.21a7.259,7.259,0,0,1-2.237-.3A5.075,5.075,0,0,1,55.094-.84a3.519,3.519,0,0,1-.861-.893,1.75,1.75,0,0,1-.3-.766.424.424,0,0,1,.147-.378.513.513,0,0,1,.336-.147h2.037A.4.4,0,0,1,56.574-3,.28.28,0,0,1,56.7-2.9q.273.189.567.431a2.849,2.849,0,0,0,.682.41,2.469,2.469,0,0,0,.977.168A2.286,2.286,0,0,0,60.1-2.174a.891.891,0,0,0,.483-.809.922.922,0,0,0-.22-.63,1.97,1.97,0,0,0-.83-.462,16.156,16.156,0,0,0-1.806-.462A7.778,7.778,0,0,1,55.8-5.208a3.023,3.023,0,0,1-1.2-1.061,2.862,2.862,0,0,1-.4-1.544,2.76,2.76,0,0,1,.514-1.575,3.813,3.813,0,0,1,1.522-1.25,5.712,5.712,0,0,1,2.52-.493,6.559,6.559,0,0,1,2.027.283,5.158,5.158,0,0,1,1.459.714,3.682,3.682,0,0,1,.893.882,1.668,1.668,0,0,1,.326.787.422.422,0,0,1-.126.357A.463.463,0,0,1,63-7.959H61.131a.535.535,0,0,1-.189-.031.408.408,0,0,1-.147-.095,5.841,5.841,0,0,1-.514-.389,2.832,2.832,0,0,0-.62-.388,2.181,2.181,0,0,0-.924-.168,1.623,1.623,0,0,0-1.06.3.954.954,0,0,0-.368.766.892.892,0,0,0,.189.546,1.68,1.68,0,0,0,.777.462,13.113,13.113,0,0,0,1.785.441,6.711,6.711,0,0,1,2.268.756,3.231,3.231,0,0,1,1.208,1.165A2.873,2.873,0,0,1,63.9-3.171a2.8,2.8,0,0,1-.588,1.753A3.806,3.806,0,0,1,61.6-.22,7.755,7.755,0,0,1,58.842.21Zm11.949,0a5.342,5.342,0,0,1-3.832-1.344,5.387,5.387,0,0,1-1.5-3.906v-.9a6.309,6.309,0,0,1,.735-2.783,4.4,4.4,0,0,1,1.827-1.785,5.821,5.821,0,0,1,2.751-.619,5.569,5.569,0,0,1,2.951.724,4.591,4.591,0,0,1,1.785,1.974,6.559,6.559,0,0,1,.6,2.866v.483a.47.47,0,0,1-.158.357.522.522,0,0,1-.368.147H68.712v.168a3.319,3.319,0,0,0,.263,1.228,2.157,2.157,0,0,0,.693.892,1.761,1.761,0,0,0,1.081.336A2.163,2.163,0,0,0,71.61-2.1a1.9,1.9,0,0,0,.557-.357,2.681,2.681,0,0,0,.326-.357,1.1,1.1,0,0,1,.3-.263.948.948,0,0,1,.368-.053h2.184a.518.518,0,0,1,.347.116.353.353,0,0,1,.115.325,1.824,1.824,0,0,1-.346.83,4,4,0,0,1-.955.966A5.543,5.543,0,0,1,72.943-.1,6.733,6.733,0,0,1,70.791.21Zm-2.079-6.7h4.116v-.042a3.278,3.278,0,0,0-.242-1.312,1.98,1.98,0,0,0-.7-.872A1.928,1.928,0,0,0,70.77-9.03a1.928,1.928,0,0,0-1.113.315,1.98,1.98,0,0,0-.7.872,3.278,3.278,0,0,0-.242,1.313ZM86.835,0a.512.512,0,0,1-.378-.147.512.512,0,0,1-.147-.378v-4.62L81.4-14.028q-.021-.063-.042-.116a.308.308,0,0,1-.021-.116.422.422,0,0,1,.136-.3.422.422,0,0,1,.3-.137H84a.678.678,0,0,1,.462.147.956.956,0,0,1,.231.273l3.3,5.775,3.3-5.775a.956.956,0,0,1,.231-.273.678.678,0,0,1,.462-.147h2.226a.422.422,0,0,1,.3.137.422.422,0,0,1,.136.3.308.308,0,0,1-.021.116q-.021.053-.042.116L89.67-5.145v4.62a.512.512,0,0,1-.147.378A.512.512,0,0,1,89.145,0ZM99.54.21a6.593,6.593,0,0,1-2.919-.578,4.107,4.107,0,0,1-1.8-1.649,5.39,5.39,0,0,1-.682-2.5q-.021-.42-.021-.956t.021-.934a5.142,5.142,0,0,1,.714-2.509,4.328,4.328,0,0,1,1.827-1.638,6.432,6.432,0,0,1,2.856-.577,6.379,6.379,0,0,1,2.835.577A4.328,4.328,0,0,1,104.2-8.914a5.142,5.142,0,0,1,.714,2.509,9.058,9.058,0,0,1,.042.934q0,.536-.042.956a5.39,5.39,0,0,1-.682,2.5,4.107,4.107,0,0,1-1.8,1.649A6.538,6.538,0,0,1,99.54.21Zm0-2.31a1.892,1.892,0,0,0,1.554-.64,3.078,3.078,0,0,0,.567-1.879q.021-.315.021-.84t-.021-.84a3.091,3.091,0,0,0-.567-1.869A1.878,1.878,0,0,0,99.54-8.82a1.909,1.909,0,0,0-1.564.651A3.046,3.046,0,0,0,97.4-6.3q-.021.315-.021.84t.021.84a3.033,3.033,0,0,0,.577,1.879A1.924,1.924,0,0,0,99.54-2.1ZM111.174.21a4.126,4.126,0,0,1-2.152-.557,3.711,3.711,0,0,1-1.449-1.617,5.853,5.853,0,0,1-.514-2.573V-10.4a.512.512,0,0,1,.147-.378.486.486,0,0,1,.357-.147h2.226a.512.512,0,0,1,.378.147.512.512,0,0,1,.147.378v5.733q0,2.352,2.058,2.352a2.035,2.035,0,0,0,1.564-.62,2.443,2.443,0,0,0,.577-1.733V-10.4a.512.512,0,0,1,.147-.378.512.512,0,0,1,.378-.147h2.226a.486.486,0,0,1,.357.147.512.512,0,0,1,.147.378v9.87a.512.512,0,0,1-.147.378.486.486,0,0,1-.357.147h-2.058a.512.512,0,0,1-.378-.147.512.512,0,0,1-.147-.378v-.819a3.542,3.542,0,0,1-1.407,1.155A4.974,4.974,0,0,1,111.174.21ZM120.918,0a.486.486,0,0,1-.357-.147.512.512,0,0,1-.147-.378V-10.4a.522.522,0,0,1,.147-.367.47.47,0,0,1,.357-.158h2.058a.5.5,0,0,1,.368.158.5.5,0,0,1,.158.367v.84a3.576,3.576,0,0,1,1.291-1.008,4.161,4.161,0,0,1,1.774-.357h.9a.486.486,0,0,1,.357.147.512.512,0,0,1,.147.378v1.806a.512.512,0,0,1-.147.378.486.486,0,0,1-.357.147h-1.848a1.981,1.981,0,0,0-1.449.515,1.951,1.951,0,0,0-.525,1.46V-.525a.512.512,0,0,1-.147.378.512.512,0,0,1-.378.147Zm18.921.21a7.682,7.682,0,0,1-3.35-.662,4.879,4.879,0,0,1-2.132-1.932,6.564,6.564,0,0,1-.84-3.1q-.021-.861-.021-1.848t.021-1.89a6.447,6.447,0,0,1,.85-3.076,5,5,0,0,1,2.153-1.942,7.541,7.541,0,0,1,3.318-.672,8.651,8.651,0,0,1,2.562.357,5.985,5.985,0,0,1,2,1.029,4.815,4.815,0,0,1,1.3,1.575,4.765,4.765,0,0,1,.5,2.016.411.411,0,0,1-.137.315.463.463,0,0,1-.326.126h-2.394a.593.593,0,0,1-.4-.126.849.849,0,0,1-.231-.42,2.676,2.676,0,0,0-1.05-1.7,3.371,3.371,0,0,0-1.827-.462,2.876,2.876,0,0,0-2.058.714,3.338,3.338,0,0,0-.819,2.373q-.063,1.722,0,3.528a3.338,3.338,0,0,0,.819,2.373,2.876,2.876,0,0,0,2.058.714,3.367,3.367,0,0,0,1.838-.472,2.614,2.614,0,0,0,1.039-1.691.8.8,0,0,1,.231-.431.629.629,0,0,1,.4-.115h2.394a.463.463,0,0,1,.326.126.411.411,0,0,1,.137.315,4.765,4.765,0,0,1-.5,2.016,4.815,4.815,0,0,1-1.3,1.575,5.985,5.985,0,0,1-2,1.029A8.651,8.651,0,0,1,139.839.21Zm11.7,0a4.49,4.49,0,0,1-1.995-.43,3.667,3.667,0,0,1-1.407-1.166,2.753,2.753,0,0,1-.525-1.638,2.736,2.736,0,0,1,1.208-2.352A7.448,7.448,0,0,1,152-6.552l2.751-.4v-.378a1.881,1.881,0,0,0-.378-1.26,1.671,1.671,0,0,0-1.323-.441,2.016,2.016,0,0,0-1.113.273,1.878,1.878,0,0,0-.651.714.535.535,0,0,1-.483.273h-1.995a.462.462,0,0,1-.357-.137.394.394,0,0,1-.105-.325,1.772,1.772,0,0,1,.273-.84,3.563,3.563,0,0,1,.84-.955,4.728,4.728,0,0,1,1.449-.787,6.476,6.476,0,0,1,2.163-.315,7.21,7.21,0,0,1,2.268.315,3.793,3.793,0,0,1,1.512.882,3.574,3.574,0,0,1,.84,1.313,4.636,4.636,0,0,1,.273,1.606V-.525a.512.512,0,0,1-.147.378.512.512,0,0,1-.378.147h-2.058a.486.486,0,0,1-.357-.147.512.512,0,0,1-.147-.378V-1.3a3.211,3.211,0,0,1-.735.745,3.789,3.789,0,0,1-1.1.557A4.83,4.83,0,0,1,151.536.21Zm.84-2.184a2.572,2.572,0,0,0,1.239-.294,2.071,2.071,0,0,0,.861-.9,3.319,3.319,0,0,0,.315-1.533v-.357l-1.953.315a4.05,4.05,0,0,0-1.659.567,1.112,1.112,0,0,0-.525.924,1.058,1.058,0,0,0,.241.693,1.462,1.462,0,0,0,.641.441A2.41,2.41,0,0,0,152.376-1.974ZM161.007,0a.486.486,0,0,1-.357-.147.512.512,0,0,1-.147-.378V-10.4a.522.522,0,0,1,.147-.367.47.47,0,0,1,.357-.158h2.058a.5.5,0,0,1,.368.158.5.5,0,0,1,.158.367v.84a3.576,3.576,0,0,1,1.292-1.008,4.161,4.161,0,0,1,1.774-.357h.9a.486.486,0,0,1,.357.147.512.512,0,0,1,.147.378v1.806a.512.512,0,0,1-.147.378.486.486,0,0,1-.357.147h-1.848a1.981,1.981,0,0,0-1.449.515,1.951,1.951,0,0,0-.525,1.46V-.525a.512.512,0,0,1-.147.378.512.512,0,0,1-.378.147Zm13.377.21a5.342,5.342,0,0,1-3.833-1.344,5.387,5.387,0,0,1-1.5-3.906v-.9a6.309,6.309,0,0,1,.735-2.783,4.4,4.4,0,0,1,1.827-1.785,5.821,5.821,0,0,1,2.751-.619,5.569,5.569,0,0,1,2.951.724A4.591,4.591,0,0,1,179.1-8.431a6.559,6.559,0,0,1,.6,2.866v.483a.47.47,0,0,1-.158.357.522.522,0,0,1-.367.147H172.3v.168a3.319,3.319,0,0,0,.262,1.228,2.157,2.157,0,0,0,.693.892,1.761,1.761,0,0,0,1.081.336A2.163,2.163,0,0,0,175.2-2.1a1.9,1.9,0,0,0,.556-.357,2.68,2.68,0,0,0,.326-.357,1.1,1.1,0,0,1,.3-.263.948.948,0,0,1,.367-.053h2.184a.518.518,0,0,1,.346.116.353.353,0,0,1,.116.325,1.824,1.824,0,0,1-.347.83,4,4,0,0,1-.955.966,5.542,5.542,0,0,1-1.564.787A6.733,6.733,0,0,1,174.384.21Zm-2.079-6.7h4.116v-.042a3.278,3.278,0,0,0-.242-1.312,1.98,1.98,0,0,0-.7-.872,1.928,1.928,0,0,0-1.113-.315,1.928,1.928,0,0,0-1.113.315,1.98,1.98,0,0,0-.7.872,3.278,3.278,0,0,0-.242,1.313ZM186.921,4.62a7.036,7.036,0,0,1-2.583-.41,4.957,4.957,0,0,1-1.628-.987,3.753,3.753,0,0,1-.85-1.145,2.854,2.854,0,0,1-.273-.882.424.424,0,0,1,.147-.378.559.559,0,0,1,.378-.147h2.247a.558.558,0,0,1,.326.094.652.652,0,0,1,.221.326,3.188,3.188,0,0,0,.294.536,1.415,1.415,0,0,0,.577.473,2.4,2.4,0,0,0,1.039.189,3.067,3.067,0,0,0,1.218-.21,1.412,1.412,0,0,0,.725-.714A3.2,3.2,0,0,0,189,0V-1.407a4,4,0,0,1-1.271.9,4.435,4.435,0,0,1-1.879.357,4.954,4.954,0,0,1-1.922-.346,3.6,3.6,0,0,1-1.376-.987,4.491,4.491,0,0,1-.84-1.543,7.466,7.466,0,0,1-.336-2.037q-.021-.567,0-1.113a7.337,7.337,0,0,1,.336-1.995,4.728,4.728,0,0,1,.84-1.564,3.691,3.691,0,0,1,1.376-1.029,4.7,4.7,0,0,1,1.922-.367,4.112,4.112,0,0,1,1.974.441A4.344,4.344,0,0,1,189.168-9.6v-.8a.522.522,0,0,1,.147-.367.47.47,0,0,1,.357-.158h2.058a.5.5,0,0,1,.368.158.5.5,0,0,1,.158.367l.021,10.1a5.4,5.4,0,0,1-.609,2.667,4,4,0,0,1-1.8,1.67A6.716,6.716,0,0,1,186.921,4.62ZM186.816-2.6a2.027,2.027,0,0,0,1.229-.346,2.114,2.114,0,0,0,.7-.882A3.09,3.09,0,0,0,189-4.956q.021-.231.021-.662T189-6.279a3.09,3.09,0,0,0-.252-1.123,2.042,2.042,0,0,0-.7-.872,2.073,2.073,0,0,0-1.229-.336,2.055,2.055,0,0,0-1.26.346,1.969,1.969,0,0,0-.672.914,4.328,4.328,0,0,0-.252,1.239q-.021.5,0,.987a4.376,4.376,0,0,0,.252,1.26,1.969,1.969,0,0,0,.672.914A2.055,2.055,0,0,0,186.816-2.6Zm8.61,2.6a.486.486,0,0,1-.357-.147.512.512,0,0,1-.147-.378V-10.4a.512.512,0,0,1,.147-.378.486.486,0,0,1,.357-.147h2.1a.512.512,0,0,1,.378.147.512.512,0,0,1,.147.378v9.87a.512.512,0,0,1-.147.378.512.512,0,0,1-.378.147Zm-.063-12.6a.486.486,0,0,1-.357-.147.512.512,0,0,1-.147-.378V-14.8a.548.548,0,0,1,.147-.389.47.47,0,0,1,.357-.157h2.2a.528.528,0,0,1,.389.157.528.528,0,0,1,.158.389v1.68a.494.494,0,0,1-.158.378.548.548,0,0,1-.389.147ZM204.54,0a.642.642,0,0,1-.473-.157,1.4,1.4,0,0,1-.262-.368l-3.948-9.744a.417.417,0,0,1-.042-.189.444.444,0,0,1,.136-.325.444.444,0,0,1,.326-.137h2.037a.532.532,0,0,1,.41.147.787.787,0,0,1,.178.273l2.583,6.93,2.583-6.93a1.214,1.214,0,0,1,.2-.273.5.5,0,0,1,.388-.147h2.037a.444.444,0,0,1,.326.137.444.444,0,0,1,.137.325.781.781,0,0,1-.021.189L207.165-.525a1.016,1.016,0,0,1-.252.368A.68.68,0,0,1,206.43,0Zm12.852.21a5.342,5.342,0,0,1-3.832-1.344,5.387,5.387,0,0,1-1.5-3.906v-.9a6.309,6.309,0,0,1,.735-2.783,4.4,4.4,0,0,1,1.827-1.785,5.821,5.821,0,0,1,2.751-.619,5.569,5.569,0,0,1,2.951.724,4.591,4.591,0,0,1,1.785,1.974,6.559,6.559,0,0,1,.6,2.866v.483a.47.47,0,0,1-.158.357.522.522,0,0,1-.367.147h-6.867v.168a3.319,3.319,0,0,0,.262,1.228,2.157,2.157,0,0,0,.693.892,1.761,1.761,0,0,0,1.081.336,2.163,2.163,0,0,0,.861-.147,1.9,1.9,0,0,0,.557-.357,2.68,2.68,0,0,0,.326-.357,1.1,1.1,0,0,1,.3-.263.948.948,0,0,1,.367-.053h2.184a.518.518,0,0,1,.346.116.353.353,0,0,1,.116.325,1.824,1.824,0,0,1-.347.83,4,4,0,0,1-.955.966,5.542,5.542,0,0,1-1.564.787A6.733,6.733,0,0,1,217.392.21Zm-2.079-6.7h4.116v-.042a3.278,3.278,0,0,0-.242-1.312,1.98,1.98,0,0,0-.7-.872,1.928,1.928,0,0,0-1.113-.315,1.928,1.928,0,0,0-1.113.315,1.98,1.98,0,0,0-.7.872,3.278,3.278,0,0,0-.242,1.313Zm10,6.489a.486.486,0,0,1-.357-.147.512.512,0,0,1-.147-.378V-10.4a.522.522,0,0,1,.147-.367.47.47,0,0,1,.357-.158h2.058a.5.5,0,0,1,.368.158.5.5,0,0,1,.158.367v.84a3.576,3.576,0,0,1,1.292-1.008,4.161,4.161,0,0,1,1.774-.357h.9a.486.486,0,0,1,.357.147.512.512,0,0,1,.147.378v1.806a.512.512,0,0,1-.147.378.486.486,0,0,1-.357.147h-1.848a1.981,1.981,0,0,0-1.449.515,1.951,1.951,0,0,0-.525,1.46V-.525a.512.512,0,0,1-.147.378.512.512,0,0,1-.378.147Z" transform="translate(327.726 65.027)" fill="#fff"/>
    <g id="Group_3" data-name="Group 3" transform="translate(261.735 30)">
      <g id="Group_2" data-name="Group 2" clip-path="url(#clip-path)">
        <path id="Path_1" data-name="Path 1" d="M67.107,0a5.738,5.738,0,1,1-5.967,5.5A5.738,5.738,0,0,1,67.107,0" transform="translate(-57.735 0.001)" fill="#09f" fill-rule="evenodd"/>
        <path id="Path_2" data-name="Path 2" d="M36.44,267.709s-10.574,10.354-13.77,11.484S1.77,268.505.188,257.105s7.252-13.87,13.6-13.223,10.959,5.327,10.959,5.327-11.055.888-11.277,8.279,5.9,15.59,8.3,16.629,14.669-6.409,14.669-6.409" transform="translate(0.001 -230.231)" fill="#09f" fill-rule="evenodd"/>
        <path id="Path_3" data-name="Path 3" d="M288.772,336.783s4.533,2.986,7.378,2.337,14.477-10.649,18.291-18.259-4.508-9.4-11.577-8.76-10.544,2.3-10.544,2.3a29.9,29.9,0,0,1,20.262-9.336c12.6-.4,12.847,13.257,5.276,21.78s-15.222,14.509-18.865,15.642-6.762-1.955-10.22-5.708" transform="translate(-272.713 -288.096)" fill="#fff" fill-rule="evenodd"/>
        <path id="Path_4" data-name="Path 4" d="M679.465,54.58a5.739,5.739,0,1,1-5.967,5.5,5.739,5.739,0,0,1,5.967-5.5" transform="translate(-636.041 -51.54)" fill="#fff" fill-rule="evenodd"/>
      </g>
    </g>
  </g>
</svg>
