<svg xmlns="http://www.w3.org/2000/svg" width="24.915" height="20.047" viewBox="0 0 24.915 20.047">
  <path id="Path_5" data-name="Path 5" d="M22.1,20.06H2.777V17.222c.1-3.3,3.021-5.818,4.784-8.677V6.032H10.5v1.8h3.953v-1.8h2.94V8.545c1.906,3.061,4.7,5.048,4.7,8.636V20.06ZM24.834,8.545a10.325,10.325,0,0,0,.02-1.379,7.688,7.688,0,0,1-6.345-.628,4.069,4.069,0,0,0,.324,2.108c.73,1.622,5.94,2.169,6-.1Zm-24.773,0a10.325,10.325,0,0,1-.02-1.379,7.688,7.688,0,0,0,6.345-.628,4.069,4.069,0,0,1-.324,2.108c-.73,1.622-5.96,2.169-6-.1ZM0,6.478c1.743-8.129,23.395-9.1,24.915.02a9.246,9.246,0,0,1-6.406-.73,1.326,1.326,0,0,0-.264-1.054c-1.277-1.6-10.42-1.662-11.6.061a1.5,1.5,0,0,0-.243.953A6.893,6.893,0,0,1,0,6.478Zm9.569,3.2a.872.872,0,1,1-.872.872.906.906,0,0,1,.872-.872Zm5.6,4.865a.872.872,0,1,1-.872.872.878.878,0,0,1,.872-.872Zm-2.8,0a.872.872,0,1,1-.872.872.878.878,0,0,1,.872-.872Zm-2.8,0a.872.872,0,1,1-.872.872.906.906,0,0,1,.872-.872Zm5.6-2.433a.872.872,0,1,1-.872.872.878.878,0,0,1,.872-.872Zm-2.8,0a.872.872,0,1,1-.872.872.878.878,0,0,1,.872-.872Zm-2.8,0a.872.872,0,1,1-.872.872.906.906,0,0,1,.872-.872Zm5.6-2.433a.872.872,0,1,1-.872.872.878.878,0,0,1,.872-.872Zm-2.8,0a.872.872,0,1,1-.872.872.878.878,0,0,1,.872-.872Z" transform="translate(0 -0.013)" fill="#09f" fill-rule="evenodd"/>
</svg>
