<svg xmlns="http://www.w3.org/2000/svg" width="26" height="26" viewBox="0 0 26 26">
  <g id="Group_56953" data-name="Group 56953" transform="translate(-1497 -10718)">
    <circle id="Ellipse_36" data-name="Ellipse 36" cx="13" cy="13" r="13" transform="translate(1497 10718)" fill="#225c82"/>
    <path id="youtube" d="M12.964-4.632A1.658,1.658,0,0,0,11.8-5.8a38.745,38.745,0,0,0-5.179-.283,40.255,40.255,0,0,0-5.179.273A1.692,1.692,0,0,0,.273-4.632,17.474,17.474,0,0,0,0-1.448,17.409,17.409,0,0,0,.273,1.736,1.659,1.659,0,0,0,1.439,2.9a38.816,38.816,0,0,0,5.179.284A40.255,40.255,0,0,0,11.8,2.913a1.658,1.658,0,0,0,1.167-1.167,17.479,17.479,0,0,0,.273-3.184A16.587,16.587,0,0,0,12.964-4.632ZM5.3.536V-3.432L8.745-1.448Zm0,0" transform="translate(1503.625 10732.414)" fill="#fff"/>
  </g>
</svg>
